<?xml version="1.0" encoding="utf-8"?>
<!-- Generator: Adobe Illustrator 27.2.0, SVG Export Plug-In . SVG Version: 6.00 Build 0)  -->
<svg version="1.1" id="Layer_1" xmlns="http://www.w3.org/2000/svg" xmlns:xlink="http://www.w3.org/1999/xlink" x="0px" y="0px"
	 viewBox="0 0 31.9 32" style="enable-background:new 0 0 31.9 32;" xml:space="preserve">
<style type="text/css">
	.st0{fill:#FFFFFF;}
</style>
<g>
	<g>
		<path class="st0" d="M19.6,9.8c-0.9-2-1.7-4-2.6-6c3.1-0.9,6.2-1.9,9.4-2.8c0,0,0,0,0,0c-0.8,1-1.6,2-2.4,3.1
			c0.1,0,0.3,0.1,0.4,0.1c2.3,0.7,4.2,1.9,5.6,3.9c1.4,1.9,1.9,4,1.9,6.2c-0.1,2.8-1.1,5.3-2.7,7.6c-2.8,4-6.7,6.7-11.3,8.2
			c-1.9,0.6-3.9,0.9-5.9,0.9C9.4,31,7,30.4,4.8,29.1c-3-1.8-4.5-4.4-4.8-7.8c-0.2-2.6,0.5-5,1.8-7.2C3.5,11,6,8.6,8.9,6.8
			c0,0,0.1,0,0.1,0C9,6.8,8.9,6.9,8.8,6.9C8.7,7,8.6,7.1,8.5,7.1c-2.3,1.6-4.2,3.6-5.6,6c-1.2,2-1.9,4.1-1.9,6.5
			c0.1,3.7,1.8,6.3,5.1,7.9c2,0.9,4,1.2,6.2,1c5.3-0.5,9.4-3,12.5-7.3c1.2-1.7,2-3.6,2.2-5.7c0.2-2.3-0.4-4.4-1.9-6.2
			c-0.9-1-1.9-1.7-3.1-2.3c-0.1-0.1-0.2,0-0.3,0.1c-0.6,0.8-1.2,1.6-1.8,2.4C19.8,9.6,19.7,9.7,19.6,9.8z"/>
	</g>
	<g>
		<g>
			<path class="st0" d="M8.2,16.1c0-0.5-0.2-0.6-1.3-0.5l-1,0l0-1.1l1.1,0c1,0,1.1-0.1,1.1-0.6c0-0.4-0.2-0.5-1.1-0.5
				c-0.9,0-1.1,0.1-1.1,0.5l-1.6,0.1c0-1.2,0.5-1.5,2.7-1.7c2.2-0.1,2.7,0.1,2.8,1.3c0,0.8-0.3,1.2-1,1.3c0.8,0.1,1.2,0.5,1.2,1.4
				c0,1.2-0.6,1.5-2.9,1.5c-2.3,0-2.8-0.3-2.9-1.6l1.7,0c0,0.5,0.1,0.5,1.1,0.5C8,16.7,8.2,16.6,8.2,16.1z"/>
			<path class="st0" d="M13.5,17.8c-2.3,0-2.9-0.5-2.9-2.8c0-2.3,0.7-2.9,3.6-3.1l1.7-0.1l0,1.3l-2.4,0.1c-0.8,0-1,0.2-1,1.3
				c0.2-0.5,0.7-0.8,1.7-0.9c1.7-0.1,2.2,0.3,2.2,2C16.3,17.3,15.8,17.8,13.5,17.8z M13.5,16.6c0.9,0,1-0.1,1-0.9
				c0-0.8-0.1-0.8-1-0.8c-0.7,0-1,0.3-1,0.9C12.5,16.5,12.6,16.6,13.5,16.6z"/>
			<path class="st0" d="M22.2,12.7l-3.3,0.2l-0.1,1.2c0.2-0.5,0.7-0.7,1.8-0.7c1.7-0.1,2.2,0.3,2.2,2.1c0,1.8-0.6,2.2-2.8,2.2
				c-2.4,0-3-0.4-3-1.9l1.9,0c0,0.5,0.1,0.6,1.1,0.6c0.9,0,1-0.1,1-0.8l0,0c0-0.8-0.1-0.9-1.1-0.9c-0.8,0-1,0.1-1.1,0.6l-1.5,0
				l0.3-3.6l4.8-0.3L22.2,12.7z"/>
		</g>
		<g>
			<path class="st0" d="M4.1,18.4l2.5,0c1.8,0,2.2,0.4,2.2,2c0,1.6-0.4,2-2.2,1.9l-2.5-0.1L4.1,18.4z M5.4,20.3l0,1l1.1,0
				c0.9,0,1-0.1,1-1c0-1-0.1-1.1-1-1.1l-1.1,0L5.4,20.3z"/>
			<path class="st0" d="M14.3,22.6l-1.5-0.1l-0.3-0.8l-1.9-0.1l-0.3,0.8l-1.4-0.1l1.6-4l2.2,0L14.3,22.6z M12.3,20.8l-0.6-1.5l0,0
				l-0.6,1.5L12.3,20.8z"/>
			<path class="st0" d="M16.9,21.1l-0.2,0l0,1.7l-1.3-0.1l0-1.7l-0.2,0l-1.5-2.6l1.5,0l0.9,1.8l0,0l0.9-1.8l1.4,0L16.9,21.1z"/>
			<path class="st0" d="M21.4,21.6c0-0.3-0.2-0.4-1.2-0.6c-1.6-0.3-2-0.6-2-1.4c0-1.1,0.5-1.3,2.2-1.3c1.8,0,2.2,0.3,2.2,1.7l-1.4,0
				c0-0.6-0.1-0.7-0.9-0.7c-0.8,0-0.9,0-0.9,0.4c0,0.2,0.2,0.3,0.8,0.5c1.8,0.4,2.3,0.7,2.3,1.6c0,1.1-0.5,1.3-2.3,1.2
				c-1.8-0.1-2.3-0.4-2.3-1.7l1.4,0c0,0.5,0.1,0.6,0.9,0.6C21.3,22,21.4,22,21.4,21.6z"/>
		</g>
	</g>
</g>
</svg>
