<?xml version="1.0" encoding="utf-8"?>
<!-- Generator: Adobe Illustrator 27.2.0, SVG Export Plug-In . SVG Version: 6.00 Build 0)  -->
<svg version="1.1" id="Layer_1" xmlns="http://www.w3.org/2000/svg" xmlns:xlink="http://www.w3.org/1999/xlink" x="0px" y="0px"
	 viewBox="0 0 1080 1080" style="enable-background:new 0 0 1080 1080;" xml:space="preserve">
<style type="text/css">
	.st0{fill:#383838;}
</style>
<g>
	<g>
		<path class="st0" d="M665.5,329.7c-29.5-68.7-58.3-136-87.7-204.4c106-31.7,211.5-63.3,316.9-94.9c0.3,0.5,0.6,1,0.9,1.5
			c-26.7,34.6-53.4,69.3-81,104.9c4.9,1.5,9,2.8,13.1,4.2c76.4,24.6,141.4,65.8,189.2,131.3c45.8,62.9,65.5,134.1,62.9,211.3
			c-3.3,95.6-37.1,181.1-91.4,258.5C892.6,878.3,762.9,968.7,605,1019.4c-65.5,21-132.6,32-201.6,30.1
			c-85.5-2.4-167-20.9-241.2-64.9C61.7,925,9.1,835.5,1,719.8c-6.2-88.1,18.3-169.3,60.6-245.6c57.8-104.2,140.7-184.3,241-247.2
			c1.1-0.7,2.2-1.2,4.1-0.7c-3.2,2.2-6.4,4.5-9.6,6.7c-3.3,2.3-6.6,4.5-9.8,6.8C210,294.8,145.1,361.3,97.4,443.5
			c-39.3,67.7-64.6,140-63.1,219.3c2.2,125.1,61.4,214.4,174.2,267.5c66.2,31.2,137.1,40.4,209.3,33.9
			c179.4-16.1,319.9-101.5,425-246c41.9-57.7,68.1-122.5,74.5-194c7.1-79.3-13-150.3-65.2-211.7C822.8,278,786.6,254,745.7,236
			c-5-2.2-7.3-1-10.4,3c-20.6,27-41.5,53.9-62.3,80.8C670.9,322.8,668.6,325.6,665.5,329.7z"/>
	</g>
	<g>
		<g>
			<path class="st0" d="M276.9,542.9c-0.2-16.8-7.1-19.7-44.3-18.6l-34.7,1l-0.4-37l36.4-1.5c32.4-1.3,38.4-4.4,38.2-20
				c-0.1-15.2-6.2-17.7-38.6-16c-31.8,1.7-37.9,3.6-37.7,17l-54.5,2.6c-0.5-40.9,17.7-52.3,91.8-57c74.4-4.8,93.1,4.2,93.5,44.6
				c0.2,27.2-9.7,41.3-32.6,45.5c27.5,2.2,40,16.5,40.2,45.9c0.3,41.3-19.6,51.7-99.1,52.1c-76.9,0.4-96.2-10.4-96.8-54l57.3-1.3
				c0.2,16.6,3.9,18.4,37.4,17.9C270.3,563.4,277.1,560,276.9,542.9z"/>
			<path class="st0" d="M456.6,600.3c-79.2,0.4-99.1-18.5-99.7-93.8c-0.6-78.5,23.3-99.7,120.4-105.8l57.1-3.6l0.2,43.5l-79.7,4
				c-27,1.4-32.7,6.1-33.3,43.6c5.6-18.3,23.6-27.4,57.5-28.9c59.1-2.7,74,11,74.3,68.1C553.5,585.4,534.1,599.9,456.6,600.3z
				 M456.3,560.3c30.6-0.5,34-3.6,33.9-30.9c-0.1-26-3.6-28.7-34.2-27.7c-24.1,0.8-34.3,9.6-34.2,29.7
				C422,557.9,425.4,560.8,456.3,560.3z"/>
			<path class="st0" d="M753.7,429.6l-113,5.7l-3.1,41c6.6-15.3,24.9-22.7,59.3-24.3c59.1-2.7,73.7,11.7,73.7,71.3
				c0,60.4-18.9,75.6-94.7,75.9c-81.2,0.4-102.4-12.2-102.6-62.9l63-1.4c-1.4,17.9,2.6,19.7,37.3,19.1c30.6-0.5,34.1-3.3,34-27.7
				l0-0.3c0-28.8-3.8-31.9-37.6-30.7c-26.1,0.9-33.5,4.6-37.5,18.6l-52.4,1.5l9.3-121.8l164.2-10.4L753.7,429.6z"/>
		</g>
		<g>
			<path class="st0" d="M139.3,619.8l84.6,0.1c59.8,0.1,74.8,13.7,75.3,68.3c0.5,54.6-14.2,67.6-73.9,65.1l-84.3-3.6L139.3,619.8z
				 M183.9,685.6l0.6,35.5l35.8,1.2c29.7,1,33-2.5,32.7-35.1c-0.3-32.6-3.7-36.3-33.5-36.6l-35.9-0.4L183.9,685.6z"/>
			<path class="st0" d="M486.1,764.5l-50.2-2.2l-9-28l-62.8-2.2l-9.6,26.7l-47.3-2L359.8,620l73,0.1L486.1,764.5z M415.8,703.1
				l-19.9-52.4l-1.3,0L375.1,702L415.8,703.1z"/>
			<path class="st0" d="M571.4,711.3l-6.3-0.2l0.2,56.8l-43.9-1.9l-0.3-56.1l-7.8-0.2L462.2,620l49.5,0l30.9,60.5l1.3,0l29.5-60.4
				l46.8,0L571.4,711.3z"/>
			<path class="st0" d="M724.6,731c0-8.9-8.2-12.9-39-19.4c-53.4-11.2-66.9-20.8-67-48.7c-0.1-36,15.4-45,75.2-45
				c60.2,0,75.7,11.5,75.7,57.2l-46.1-0.7c0-20.6-3.2-22.8-29.6-23.1c-26-0.2-29.1,1.1-29.1,12.6c0,8,6.1,11,28.3,15.7
				c61.2,12.4,77.6,23.6,77.6,55.1c0,35.7-15.7,43.9-76.6,41.2c-62.6-2.7-78.7-14-78.8-56.1l46.1,1.3c0,18.3,3.4,20.4,31.4,21.3
				C721.2,743.4,724.6,742.3,724.6,731z"/>
		</g>
	</g>
</g>
</svg>
